<svg width="116" height="116" viewBox="0 0 116 116" fill="none" xmlns="http://www.w3.org/2000/svg">
<path d="M98.263 20.4344C90.7541 16.9212 82.7253 14.3679 74.3313 12.9141C73.3005 14.7778 72.0961 17.2847 71.2657 19.2789C62.3427 17.9369 53.5018 17.9369 44.7429 19.2789C43.9127 17.2847 42.681 14.7778 41.6409 12.9141C33.2379 14.3679 25.1998 16.9306 17.6909 20.453C2.54544 43.3398 -1.56025 65.6582 0.492597 87.6596C10.5379 95.1612 20.273 99.7182 29.8438 102.7C32.2069 99.4478 34.3144 95.9906 36.13 92.347C32.6721 91.0331 29.3602 89.4116 26.2309 87.5292C27.0611 86.9142 27.8731 86.2711 28.6577 85.6095C47.7446 94.5369 68.483 94.5369 87.3419 85.6095C88.1357 86.2711 88.9476 86.9142 89.7687 87.5292C86.6302 89.4208 83.3092 91.0423 79.8513 92.3564C81.6669 95.9906 83.7654 99.4572 86.1375 102.709C95.7176 99.7274 105.462 95.1706 115.507 87.6596C117.916 62.1543 111.392 40.041 98.263 20.4344ZM38.7304 74.1289C33.0007 74.1289 28.3018 68.7799 28.3018 62.2661C28.3018 55.7523 32.9003 50.3941 38.7304 50.3941C44.5605 50.3941 49.2592 55.743 49.1589 62.2661C49.1679 68.7799 44.5605 74.1289 38.7304 74.1289ZM77.2692 74.1289C71.5396 74.1289 66.8407 68.7799 66.8407 62.2661C66.8407 55.7523 71.4391 50.3941 77.2692 50.3941C83.0993 50.3941 87.7981 55.743 87.6978 62.2661C87.6978 68.7799 83.0993 74.1289 77.2692 74.1289Z" fill="white"/>
</svg>
