<svg width="120" height="120" viewBox="0 0 120 120" fill="none" xmlns="http://www.w3.org/2000/svg">
<path fill-rule="evenodd" clip-rule="evenodd" d="M37.74 107.999C83.022 107.999 107.79 71.0601 107.79 39.031C107.79 37.9795 107.79 36.9359 107.718 35.8962C112.536 32.47 116.694 28.2159 120 23.3484C115.512 25.3096 110.742 26.5958 105.864 27.1628C111 24.1324 114.846 19.3715 116.688 13.7537C111.852 16.5773 106.566 18.5701 101.052 19.6394C91.728 9.88057 76.134 9.40776 66.216 18.5876C59.826 24.5067 57.108 33.3319 59.094 41.7497C39.3 40.7692 20.856 31.5658 8.352 16.4255C1.818 27.5016 5.16 41.6657 15.978 48.7781C12.06 48.6658 8.226 47.6272 4.8 45.7488V46.0564C4.806 57.5933 13.068 67.5272 24.552 69.8132C20.928 70.7879 17.124 70.9293 13.44 70.2263C16.662 80.1033 25.908 86.8683 36.438 87.0632C27.72 93.8093 16.95 97.4724 5.862 97.4607C3.906 97.4547 1.95 97.3424 0 97.1121C11.262 104.224 24.36 107.999 37.74 107.981" fill="white"/>
</svg>
